<svg width="290" height="493" viewBox="0 0 290 493" fill="none" xmlns="http://www.w3.org/2000/svg">
<path d="M281.678 226.804L62.73 7.86C57.666 2.792 50.906 0 43.698 0C36.49 0 29.73 2.792 24.666 7.86L8.542 23.98C-1.95 34.484 -1.95 51.556 8.542 62.044L192.398 245.9L8.338 429.96C3.274 435.028 0.477997 441.784 0.477997 448.988C0.477997 456.2 3.274 462.956 8.338 468.028L24.462 484.144C29.53 489.212 36.286 492.004 43.494 492.004C50.702 492.004 57.462 489.212 62.526 484.144L281.678 265C286.754 259.916 289.542 253.128 289.526 245.912C289.542 238.668 286.754 231.884 281.678 226.804Z" fill="#D71B18"/>
</svg>
