<svg width="77" height="77" viewBox="0 0 77 77" fill="none" xmlns="http://www.w3.org/2000/svg">
<g clip-path="url(#clip0)">
<path d="M69.5807 0H7.41927C3.32172 0 0 3.32172 0 7.41927V69.5807C0 73.6783 3.32172 77 7.41927 77H69.5807C73.6783 77 77 73.6783 77 69.5807V7.41927C77 3.32172 73.6783 0 69.5807 0Z" fill="white"/>
<path d="M28.475 11.8302H48.527C52.9385 11.8302 56.9489 13.6349 59.7562 16.6427C62.5635 19.45 64.3682 23.4604 64.3682 27.8719V49.1271C64.3682 53.5386 62.5635 57.3485 59.7562 60.3563C56.9489 63.1636 52.9385 64.9682 48.527 64.9682H28.475C24.0635 64.9682 20.0531 63.1636 17.2458 60.3563C14.238 57.3485 12.4333 53.5386 12.4333 49.1271V27.8719C12.4333 23.4604 14.238 19.45 17.2458 16.6427C20.0531 13.6349 24.0635 11.8302 28.475 11.8302ZM48.527 16.4422H28.475C25.2666 16.4422 22.4593 17.6453 20.2536 19.6505C18.2484 21.8563 16.8447 24.6636 16.8447 27.8719V49.1271C16.8447 52.1349 18.2484 55.1427 20.2536 57.1479C22.4593 59.3537 25.2666 60.5568 28.475 60.5568H48.527C51.7354 60.5568 54.5427 59.3537 56.5479 57.1479C58.7536 55.1427 59.9567 52.1349 59.9567 49.1271V27.8719C59.9567 24.6636 58.7536 21.8563 56.5479 19.6505C54.5427 17.6453 51.7354 16.4422 48.527 16.4422Z" fill="black"/>
<path d="M38.502 24.6638C42.3119 24.6638 45.7207 26.0675 48.127 28.6743C50.5332 31.0805 52.1374 34.4894 52.1374 38.2993C52.1374 42.1092 50.5332 45.3175 48.127 47.9243C45.7207 50.3305 42.3119 51.9347 38.502 51.9347C34.6921 51.9347 31.2832 50.3305 28.877 47.9243C26.2702 45.3175 24.8666 42.1092 24.8666 38.2993C24.8666 34.4894 26.2702 31.0805 28.877 28.6743C31.2832 26.0675 34.6921 24.6638 38.502 24.6638ZM44.9187 31.6821C43.3145 30.0779 40.9082 29.0753 38.502 29.0753C35.8952 29.0753 33.6895 30.0779 31.8848 31.6821C30.2806 33.4868 29.278 35.6925 29.278 38.2993C29.278 40.7055 30.2806 43.1118 31.8848 44.7159C33.6895 46.3201 35.8952 47.3227 38.502 47.3227C40.9082 47.3227 43.3145 46.3201 44.9187 44.7159C46.5228 43.1118 47.7259 40.7055 47.7259 38.2993C47.7259 35.6925 46.5228 33.4868 44.9187 31.6821Z" fill="black"/>
<path d="M53.1384 27.0695C54.9104 27.0695 56.3468 25.6331 56.3468 23.8612C56.3468 22.0893 54.9104 20.6529 53.1384 20.6529C51.3665 20.6529 49.9301 22.0893 49.9301 23.8612C49.9301 25.6331 51.3665 27.0695 53.1384 27.0695Z" fill="black"/>
</g>
<defs>
<clipPath id="clip0">
<rect width="77" height="77" fill="white"/>
</clipPath>
</defs>
</svg>
